<svg width="100%" height="100%" class="clear-Moon" viewBox="0 0 169 185" fill="none" xmlns="http://www.w3.org/2000/svg">
<path d="M100.935 185C126.107 184.974 150.369 176.241 169 160.497C166.814 160.497 164.629 160.497 162.443 160.497C142.417 160.478 122.789 155.293 105.742 145.517C88.6958 135.742 74.8987 121.761 65.8856 105.127C56.8725 88.4943 52.9967 69.8618 54.6893 51.3022C56.3819 32.7426 63.5766 14.9835 75.473 0C51.7144 5.7872 31.0339 19.4218 17.2952 38.3565C3.55655 57.2912 -2.30037 80.2305 0.818726 102.889C3.93784 125.547 15.8196 146.374 34.244 161.478C52.6685 176.583 76.3753 184.931 100.935 184.964V185Z" fill="#FADEB5"/>
<path class="moon-Stars" d="M105 22L109.49 35.8197H124.021L112.265 44.3607L116.756 58.1803L105 49.6393L93.2443 58.1803L97.7346 44.3607L85.9789 35.8197H100.51L105 22Z" fill="#FFB800"/>
<path class="moon-Stars" d="M148.726 65.3405L149.122 74.4136L157.874 76.8406L149.367 80.0211L149.763 89.0943L144.11 81.9868L135.603 85.1673L140.616 77.5941L134.962 70.4866L143.714 72.9136L148.726 65.3405Z" fill="#FFB800"/>
</svg>
