<svg width="100%" height="100%" class="clear-Sun" viewBox="0 0 174 173" fill="none" xmlns="http://www.w3.org/2000/svg">
<path d="M86.512 135.024C113.304 135.024 135.024 113.304 135.024 86.512C135.024 59.7196 113.304 38 86.512 38C59.7196 38 38 59.7196 38 86.512C38 113.304 59.7196 135.024 86.512 135.024Z" fill="#F8E81C"/>
<path fill-rule="evenodd" class="Sun-Rays" clip-rule="evenodd" d="M84.5523 0H89.4035L95.4675 29.1071H78.4883L84.5523 0ZM125.486 8.89989L129.769 11.1774L121.458 39.7243L106.466 31.7531L125.486 8.89989ZM157.395 35.65L160.178 39.6239L139.812 61.2864L130.074 47.3779L157.395 35.65ZM173.365 74.369L173.956 79.1841L145.805 88.7501L143.735 71.8975L173.365 74.369ZM169.473 116.076L167.735 120.605L138.388 115.835L144.472 99.9839L169.473 116.076ZM146.773 150.981L143.168 154.227L119.185 136.654L131.803 125.293L146.773 150.981ZM110.267 171.509L105.56 172.683L92.6342 145.907L109.109 141.8L110.267 171.509ZM68.3962 172.683L63.6891 171.509L64.8469 141.8L81.3217 145.907L68.3962 172.683ZM30.7883 154.227L27.1832 150.981L42.1532 125.293L54.7712 136.654L30.7883 154.227ZM6.22119 120.605L4.48268 116.076L29.4834 99.9839L35.5682 115.835L6.22119 120.605ZM0 79.1841L0.591209 74.369L30.2204 71.8975L28.1511 88.7501L0 79.1841ZM13.7784 39.6239L16.5609 35.65L43.8822 47.3779L34.1434 61.2864L13.7784 39.6239ZM44.1869 11.1774L48.4702 8.89989L67.4894 31.7531L52.4977 39.7243L44.1869 11.1774Z" fill="#F8E81C"/>
</svg>
