<svg width="100%" height="100%" class="fog"  viewBox="0 0 177 122" fill="none" xmlns="http://www.w3.org/2000/svg">
<path class="fog-Rays" d="M175.417 45.3675C174.118 44.2901 162.503 34.7795 154.34 34.7795C149.516 34.7795 145.805 37.7887 142.503 40.4636C139.942 42.5069 137.53 44.4759 135.304 44.4759C133.3 44.4759 131 42.5812 128.551 40.575C125.248 37.863 121.5 34.7795 116.602 34.7795C111.741 34.7795 108.105 37.8259 104.876 40.5007C102.39 42.5812 100.09 44.513 97.9003 44.513C95.6368 44.513 93.2248 42.544 90.6644 40.4264C87.4732 37.7887 83.8368 34.8167 79.1984 34.8167C74.3745 34.8167 70.6638 37.8259 67.3613 40.5007C64.8009 42.544 62.389 44.513 60.1625 44.513C57.9732 44.513 55.6355 42.544 53.1865 40.5007C49.9581 37.8259 46.3217 34.7795 41.4607 34.7795C36.5997 34.7795 32.9632 37.8259 29.7349 40.5007C27.2487 42.5812 24.9481 44.513 22.7588 44.513C18.8254 44.513 10.6248 39.3119 6.06066 35.634C4.46506 34.3337 2.12733 34.5938 0.828585 36.1912C-0.470157 37.7887 -0.21041 40.1292 1.38519 41.4295C2.72104 42.5069 14.6324 51.9804 22.7588 51.9804C27.6198 51.9804 31.2563 48.934 34.4846 46.2591C36.9707 44.1787 39.2714 42.2468 41.4607 42.2468C43.65 42.2468 45.9877 44.2158 48.4368 46.2591C51.6651 48.934 55.3015 51.9804 60.1625 51.9804C64.9865 51.9804 68.6971 48.9711 71.9996 46.2963C74.56 44.253 76.972 42.284 79.1984 42.284C81.2022 42.284 83.5028 44.1787 85.9519 46.1848C89.2544 48.8968 93.0022 51.9804 97.9003 51.9804C102.761 51.9804 106.398 48.934 109.626 46.2591C112.112 44.1787 114.413 42.2468 116.602 42.2468C118.866 42.2468 121.278 44.2158 123.838 46.3334C127.029 48.9711 130.666 51.9432 135.304 51.9432C140.128 51.9432 143.839 48.934 147.141 46.2591C149.702 44.2158 152.113 42.2468 154.34 42.2468C158.236 42.2468 166.214 47.4108 170.63 51.0887C171.335 51.646 172.151 51.9432 173.005 51.9432C174.081 51.9432 175.12 51.4974 175.899 50.6058C177.198 49.0083 176.975 46.6678 175.417 45.3675ZM1.38519 6.65C2.72104 7.72738 14.6324 17.2008 22.7588 17.2008C27.6198 17.2008 31.2563 14.1545 34.4846 11.4796C36.9707 9.39916 39.2714 7.46732 41.4607 7.46732C43.65 7.46732 45.9877 9.43631 48.4368 11.4796C51.6651 14.1545 55.3015 17.2008 60.1625 17.2008C64.9865 17.2008 68.6971 14.1916 71.9996 11.5168C74.56 9.47347 76.972 7.50447 79.1984 7.50447C81.2022 7.50447 83.5028 9.39916 85.9519 11.4053C89.2544 14.1173 93.0022 17.2008 97.9003 17.2008C102.761 17.2008 106.398 14.1545 109.626 11.4796C112.112 9.39916 114.413 7.46732 116.602 7.46732C118.866 7.46732 121.278 9.43631 123.838 11.5539C127.029 14.1916 130.666 17.1637 135.304 17.1637C140.128 17.1637 143.839 14.1545 147.141 11.4796C149.702 9.43631 152.113 7.46732 154.34 7.46732C158.236 7.46732 166.214 12.6313 170.63 16.3092C171.335 16.8665 172.151 17.1637 173.005 17.1637C174.081 17.1637 175.12 16.7179 175.899 15.8263C177.198 14.2288 176.975 11.8883 175.417 10.588C174.118 9.47346 162.503 0 154.34 0C149.516 0 145.805 3.00921 142.503 5.68407C139.942 7.72737 137.53 9.69637 135.304 9.69637C133.3 9.69637 131 7.80168 128.551 5.79553C125.248 3.08352 121.5 0 116.602 0C111.741 0 108.105 3.04637 104.876 5.72123C102.39 7.80168 100.09 9.73352 97.9003 9.73352C95.6368 9.73352 93.2248 7.76452 90.6644 5.64693C87.4732 3.00922 83.8368 0.0371475 79.1984 0.0371475C74.3745 0.0371475 70.6638 3.04637 67.3613 5.72123C64.8009 7.76453 62.389 9.73352 60.1625 9.73352C57.9732 9.73352 55.6355 7.76453 53.1865 5.72123C49.9581 3.04637 46.3217 0 41.4607 0C36.5997 0 32.9632 3.04637 29.7349 5.72123C27.2487 7.80168 24.9481 9.73352 22.7588 9.73352C18.8254 9.73352 10.6248 4.5324 6.06066 0.854469C4.46506 -0.44581 2.12733 -0.185758 0.828585 1.41173C-0.470157 3.00921 -0.21041 5.34972 1.38519 6.65ZM175.417 114.927C174.118 113.849 162.503 104.339 154.34 104.339C149.516 104.339 145.805 107.348 142.503 110.023C139.942 112.066 137.53 114.035 135.304 114.035C133.3 114.035 131 112.14 128.551 110.134C125.248 107.422 121.5 104.339 116.602 104.339C111.741 104.339 108.105 107.385 104.876 110.06C102.39 112.14 100.09 114.072 97.9003 114.072C95.6368 114.072 93.2248 112.103 90.6644 109.985C87.4732 107.348 83.8368 104.376 79.1984 104.376C74.3745 104.376 70.6638 107.385 67.3613 110.06C64.8009 112.103 62.389 114.072 60.1625 114.072C57.9732 114.072 55.6355 112.103 53.1865 110.06C49.9581 107.385 46.3217 104.339 41.4607 104.339C36.5997 104.339 32.9632 107.385 29.7349 110.06C27.2487 112.14 24.9481 114.072 22.7588 114.072C18.8254 114.072 10.6248 108.871 6.06066 105.193C4.46506 103.893 2.12733 104.153 0.828585 105.75C-0.470157 107.348 -0.21041 109.688 1.38519 110.989C2.72104 112.066 14.6324 121.539 22.7588 121.539C27.6198 121.539 31.2563 118.493 34.4846 115.818C36.9707 113.738 39.2714 111.806 41.4607 111.806C43.65 111.806 45.9877 113.775 48.4368 115.818C51.6651 118.493 55.3015 121.539 60.1625 121.539C64.9865 121.539 68.6971 118.53 71.9996 115.855C74.56 113.812 76.972 111.843 79.1984 111.843C81.2022 111.843 83.5028 113.738 85.9519 115.744C89.2544 118.456 93.0022 121.539 97.9003 121.539C102.761 121.539 106.398 118.493 109.626 115.818C112.112 113.738 114.413 111.806 116.602 111.806C118.866 111.806 121.278 113.775 123.838 115.892C127.029 118.53 130.666 121.502 135.304 121.502C140.128 121.502 143.839 118.493 147.141 115.818C149.702 113.775 152.113 111.806 154.34 111.806C158.236 111.806 166.214 116.97 170.63 120.648C171.335 121.205 172.151 121.502 173.005 121.502C174.081 121.502 175.12 121.056 175.899 120.165C177.198 118.567 176.975 116.227 175.417 114.927ZM175.417 80.147C174.118 79.0696 162.503 69.559 154.34 69.559C149.516 69.559 145.805 72.5682 142.503 75.2431C139.942 77.2864 137.53 79.2554 135.304 79.2554C133.3 79.2554 131 77.3607 128.551 75.3546C125.248 72.6426 121.5 69.559 116.602 69.559C111.741 69.559 108.105 72.6054 104.876 75.2803C102.39 77.3607 100.09 79.2926 97.9003 79.2926C95.6368 79.2926 93.2248 77.3236 90.6644 75.206C87.4732 72.5683 83.8368 69.5962 79.1984 69.5962C74.3745 69.5962 70.6638 72.6054 67.3613 75.2803C64.8009 77.3236 62.389 79.2926 60.1625 79.2926C57.9732 79.2926 55.6355 77.3236 53.1865 75.2803C49.9581 72.6054 46.3217 69.559 41.4607 69.559C36.5997 69.559 32.9632 72.6054 29.7349 75.2803C27.2487 77.3607 24.9481 79.2926 22.7588 79.2926C18.8254 79.2926 10.6248 74.0914 6.06066 70.4135C4.46506 69.1132 2.12733 69.3733 0.828585 70.9708C-0.470157 72.5683 -0.21041 74.9088 1.38519 76.209C2.72104 77.2864 14.6324 86.7599 22.7588 86.7599C27.6198 86.7599 31.2563 83.7135 34.4846 81.0386C36.9707 78.9582 39.2714 77.0264 41.4607 77.0264C43.65 77.0264 45.9877 78.9953 48.4368 81.0386C51.6651 83.7135 55.3015 86.7599 60.1625 86.7599C64.9865 86.7599 68.6971 83.7506 71.9996 81.0758C74.56 79.0325 76.972 77.0635 79.1984 77.0635C81.2022 77.0635 83.5028 78.9582 85.9519 80.9643C89.2544 83.6764 93.0022 86.7599 97.9003 86.7599C102.761 86.7599 106.398 83.7135 109.626 81.0386C112.112 78.9582 114.413 77.0264 116.602 77.0264C118.866 77.0264 121.278 78.9953 123.838 81.1129C127.029 83.7507 130.666 86.7227 135.304 86.7227C140.128 86.7227 143.839 83.7135 147.141 81.0386C149.702 78.9953 152.113 77.0264 154.34 77.0264C158.236 77.0264 166.214 82.1903 170.63 85.8683C171.335 86.4255 172.151 86.7227 173.005 86.7227C174.081 86.7227 175.12 86.2398 175.899 85.3853C177.198 83.7878 176.975 81.4473 175.417 80.147Z" fill="#CCCCCC"/>
</svg>
