<svg width="100%" height="100%" class="freezingRain" viewBox="0 0 212 189" fill="none" xmlns="http://www.w3.org/2000/svg">
<path class="freezingRain-Ice" d="M134.1 171.484L127.676 167.741L133.099 164.483C133.971 164.06 134.241 162.879 133.745 162.011C133.241 161.122 132.151 160.934 131.324 161.42L124.093 165.692L112.6 158.948L124.093 152.274L131.324 156.538C131.55 156.705 131.84 156.802 132.163 156.802C132.776 156.802 133.325 156.51 133.745 155.955C134.229 155.072 133.971 153.906 133.099 153.482L127.676 150.225L134.1 146.481C134.937 145.995 135.225 144.905 134.746 144.009C134.288 143.148 133.155 142.849 132.292 143.356L125.835 147.134L125.739 140.619C125.724 139.612 124.964 138.8 123.964 138.8C122.963 138.8 122.181 139.675 122.188 140.619L122.252 149.218L110.825 155.892V142.349L118.024 138.209C118.864 137.73 119.23 136.612 118.734 135.737C118.229 134.848 117.194 134.584 116.312 135.084L110.825 138.209V130.82C110.825 129.813 110.017 129 109.017 129C108.016 129 107.241 129.813 107.241 130.82V138.279L101.559 135.084C100.674 134.591 99.6669 134.869 99.1703 135.737C98.6662 136.626 98.9796 137.716 99.848 138.209L107.241 142.411V155.823L95.5547 149.023L95.6195 140.619C95.7166 139.675 94.877 138.8 93.8764 138.8H93.8116C92.8757 138.8 92.0465 139.612 92.0362 140.619L91.9714 146.94L85.6767 143.293C84.7979 142.779 83.7132 143.085 83.2553 143.939C82.7759 144.842 83.0238 145.905 83.9013 146.419L90.2607 150.127L84.7078 153.482C83.8365 153.906 83.5644 155.086 84.0948 155.955C84.4363 156.517 84.9336 156.802 85.6119 156.802C85.9666 156.802 86.262 156.712 86.5478 156.538L93.8116 152.211L105.466 158.948L93.8116 165.754L86.5478 161.42C85.6759 160.907 84.552 161.15 84.0947 162.011C83.6153 162.907 83.8756 163.983 84.7076 164.483L90.2606 167.803L83.9011 171.547C83.0258 172.061 82.742 173.144 83.2551 174.026C83.614 174.637 84.0948 174.936 84.7724 174.936C84.9336 174.936 85.2566 174.839 85.6767 174.672L91.9714 171.026L92.0362 177.346C92.0465 178.353 92.8757 179.131 93.8116 179.131H93.8764C94.877 179.131 95.627 178.291 95.6195 177.277L95.5547 168.88L107.241 162.143V175.485L99.848 179.686C98.9658 180.187 98.6572 181.277 99.1703 182.159C99.5291 182.777 100.01 183.076 100.688 183.076C101.011 183.076 101.308 183.02 101.559 182.874L107.241 179.624V187.208C107.241 188.215 108.016 189 109.017 189C110.017 189 110.825 188.215 110.825 187.208V179.749L116.312 182.874C116.563 183.02 116.861 183.076 117.152 183.076C117.862 183.076 118.385 182.784 118.734 182.159C119.224 181.284 118.907 180.186 118.024 179.686L110.825 175.617V162.073L122.252 168.748L122.188 177.277C122.18 178.291 122.963 179.131 123.964 179.131C124.964 179.131 125.724 178.353 125.739 177.346L125.835 170.797L132.292 174.61C132.541 174.755 132.873 174.804 133.229 174.804C133.906 174.804 134.404 174.519 134.746 173.957C135.276 173.089 134.937 171.97 134.1 171.484Z" fill="#4DC2D9"/>
<path class="freezingRain-Rain" style="--i:1;" fill-rule="evenodd" clip-rule="evenodd" d="M42.5 188C53.8218 188 63 178.972 63 167.836C63 156.7 42.5 128 42.5 128C42.5 128 22 156.7 22 167.836C22 178.972 31.1782 188 42.5 188Z" fill="#4DC2D9"/>
<path class="freezingRain-Rain" style="--i:2;" fill-rule="evenodd" clip-rule="evenodd" d="M174.5 188C185.822 188 195 178.972 195 167.836C195 156.7 174.5 128 174.5 128C174.5 128 154 156.7 154 167.836C154 178.972 163.178 188 174.5 188Z" fill="#4DC2D9"/>
<path  fill-rule="evenodd" clip-rule="evenodd" d="M28.4444 119.811C27.4249 119.936 26.3866 120 25.3333 120C11.3421 120 0 108.658 0 94.6667C0 80.6755 11.3421 69.3333 25.3333 69.3333C26.9724 69.3333 28.5751 69.489 30.1275 69.7863C29.605 66.6016 29.3333 63.3326 29.3333 60C29.3333 26.8629 56.1963 0 89.3333 0C116.017 0 138.632 17.4181 146.428 41.5045C149.895 40.5244 153.553 40 157.333 40C179.425 40 197.333 57.9086 197.333 80C197.333 83.7061 196.829 87.2945 195.886 90.7004C196.217 90.678 196.552 90.6667 196.889 90.6667C204.989 90.6667 211.556 97.2332 211.556 105.333C211.556 113.434 204.989 120 196.889 120C196.439 120 195.995 119.98 195.556 119.94V120H28.4444V119.811Z" fill="#DCDCDC"/>
</svg>
