<svg width="100%" height="100%" class="freezingDrizzle" viewBox="0 0 252 208" fill="none" xmlns="http://www.w3.org/2000/svg">
<path fill-rule="evenodd" clip-rule="evenodd" d="M68.4444 119.811C67.4249 119.936 66.3866 120 65.3333 120C51.3421 120 40 108.658 40 94.6667C40 80.6755 51.3421 69.3333 65.3333 69.3333C66.9724 69.3333 68.5751 69.489 70.1275 69.7863C69.605 66.6016 69.3333 63.3326 69.3333 60C69.3333 26.8629 96.1963 0 129.333 0C156.017 0 178.632 17.4181 186.428 41.5045C189.895 40.5244 193.553 40 197.333 40C219.425 40 237.333 57.9086 237.333 80C237.333 83.7061 236.829 87.2945 235.886 90.7004C236.217 90.678 236.552 90.6667 236.889 90.6667C244.989 90.6667 251.556 97.2332 251.556 105.333C251.556 113.434 244.989 120 236.889 120C236.439 120 235.995 119.98 235.556 119.94V120H68.4444V119.811Z" fill="#DCDCDC"/>
<line class="freezingDrizzle-Rain" style="--i:1;" x1="87.2763" y1="130.294" x2="66.8296" y2="206.602" stroke="#4DC2D9" stroke-width="10" stroke-dasharray="42 6"/>
<line class="freezingDrizzle-Rain" style="--i:2;" x1="148.276" y1="130.294" x2="127.83" y2="206.602" stroke="#4DC2D9" stroke-width="10" stroke-dasharray="42 6"/>
<line class="freezingDrizzle-Rain" style="--i:3;" x1="209.276" y1="130.294" x2="188.83" y2="206.602" stroke="#4DC2D9" stroke-width="10" stroke-dasharray="42 6"/>
<path class="freezingDrizzle-Ice" d="M86.477 110.229L75.6052 105.363L84.7836 101.128C86.2591 100.578 86.7158 99.0426 85.8767 97.9141C85.0224 96.7584 83.1786 96.5147 81.7789 97.1466L69.5414 102.699L50.0925 93.9323L69.5413 85.2556L81.7788 90.7993C82.161 91.016 82.6527 91.1424 83.1996 91.1424C84.2367 91.1424 85.1658 90.7633 85.8765 90.0409C86.696 88.8942 86.259 87.3774 84.7834 86.8267L75.605 82.5921L86.4768 77.7257C87.8939 77.0937 88.3812 75.6761 87.5699 74.5114C86.7951 73.3918 84.8778 73.0036 83.4174 73.6627L72.4908 78.5744L72.3276 70.1053C72.302 68.7961 71.0164 67.7397 69.323 67.7397C67.6299 67.7397 66.3057 68.8773 66.3185 70.1053L66.4269 81.283L47.0877 89.9597V72.3534L59.2706 66.9722C60.6928 66.3492 61.3126 64.8955 60.4723 63.758C59.619 62.6023 57.8675 62.2591 56.3745 62.9093L47.0877 66.9723V57.3655C47.0877 56.0563 45.7217 55 44.0283 55C42.3349 55 41.0237 56.0563 41.0237 57.3655V67.0624L31.4083 62.9092C29.9106 62.2682 28.2055 62.6293 27.3652 63.7579C26.5121 64.9136 27.0424 66.3312 28.5121 66.9721L41.0237 72.4346V89.8693L21.2465 81.0301L21.3561 70.1052C21.5204 68.8773 20.0996 67.7396 18.4062 67.7396H18.2966C16.7126 67.7396 15.3095 68.796 15.292 70.1052L15.1824 78.3214L4.52988 73.5813C3.04266 72.9131 1.20704 73.3104 0.43201 74.4209C-0.379254 75.5947 0.0403258 76.9761 1.52525 77.6443L12.2874 82.4656L2.8901 86.8266C1.41553 87.3774 0.955118 88.9123 1.85266 90.0409C2.43069 90.7723 3.27229 91.1424 4.42017 91.1424C5.02035 91.1424 5.52031 91.025 6.00402 90.7993L18.2965 85.1743L38.019 93.9323L18.2965 102.781L6.00402 97.1466C4.52845 96.4785 2.62639 96.7945 1.85251 97.9141C1.04125 99.0788 1.48182 100.478 2.88981 101.128L12.2872 105.444L1.52496 110.311C0.0436329 110.979 -0.436626 112.387 0.431722 113.534C1.03909 114.328 1.85266 114.717 2.99953 114.717C3.27229 114.717 3.81884 114.59 4.52988 114.374L15.1824 109.634L15.292 117.85C15.3095 119.159 16.7126 120.17 18.2966 120.17H18.4062C20.0996 120.17 21.3688 119.078 21.3561 117.759L21.2465 106.844L41.0237 98.0857V115.43L28.5121 120.892C27.0191 121.543 26.4968 122.96 27.3652 124.107C27.9724 124.91 28.786 125.299 29.9327 125.299C30.4794 125.299 30.9828 125.226 31.4083 125.037L41.0237 120.811V130.671C41.0237 131.98 42.3349 133 44.0283 133C45.7217 133 47.0877 131.98 47.0877 130.671V120.974L56.3745 125.037C56.7997 125.226 57.3033 125.299 57.7953 125.299C58.9967 125.299 59.8826 124.919 60.4723 124.107C61.3021 122.969 60.766 121.542 59.2706 120.892L47.0877 115.602V97.9953L66.4269 106.672L66.3185 117.759C66.3044 119.078 67.6297 120.17 69.3231 120.17C71.0165 120.17 72.302 119.159 72.3276 117.85L72.4908 109.336L83.4174 114.292C83.8393 114.482 84.4009 114.545 85.0024 114.545C86.1494 114.545 86.9907 114.175 87.5698 113.444C88.4665 112.315 87.894 110.861 86.477 110.229Z" fill="#4DC2D9"/>
</svg>
