<svg width="100%" height="100%" class="freezingRain" viewBox="0 0 212 189" fill="none" xmlns="http://www.w3.org/2000/svg">
<path class="freezingRain-Ice" d="M89.1 171.484L82.6758 167.741L88.0994 164.483C88.9713 164.06 89.2412 162.879 88.7453 162.011C88.2405 161.122 87.151 160.934 86.3239 161.42L79.0926 165.692L67.6001 158.948L79.0926 152.274L86.3238 156.538C86.5497 156.705 86.8403 156.802 87.1634 156.802C87.7763 156.802 88.3252 156.51 88.7452 155.955C89.2294 155.072 88.9712 153.906 88.0993 153.482L82.6757 150.225L89.1 146.481C89.9373 145.995 90.2253 144.905 89.7459 144.009C89.288 143.148 88.155 142.849 87.2921 143.356L80.8355 147.134L80.739 140.619C80.7239 139.612 79.9642 138.8 78.9636 138.8C77.9631 138.8 77.1806 139.675 77.1882 140.619L77.2523 149.218L65.8246 155.892V142.349L73.0235 138.209C73.864 137.73 74.2302 136.612 73.7336 135.737C73.2294 134.848 72.1944 134.584 71.3122 135.084L65.8246 138.209V130.82C65.8246 129.813 65.0174 129 64.0167 129C63.0161 129 62.2413 129.813 62.2413 130.82V138.279L56.5594 135.084C55.6744 134.591 54.6669 134.869 54.1703 135.737C53.6662 136.626 53.9796 137.716 54.848 138.209L62.2413 142.411V155.823L50.5547 149.023L50.6195 140.619C50.7166 139.675 49.877 138.8 48.8764 138.8H48.8116C47.8757 138.8 47.0465 139.612 47.0362 140.619L46.9714 146.94L40.6767 143.293C39.7979 142.779 38.7132 143.085 38.2553 143.939C37.7759 144.842 38.0238 145.905 38.9013 146.419L45.2607 150.127L39.7078 153.482C38.8365 153.906 38.5644 155.086 39.0948 155.955C39.4363 156.517 39.9336 156.802 40.6119 156.802C40.9666 156.802 41.262 156.712 41.5478 156.538L48.8116 152.211L60.4658 158.948L48.8116 165.754L41.5478 161.42C40.6759 160.907 39.552 161.15 39.0947 162.011C38.6153 162.907 38.8756 163.983 39.7076 164.483L45.2606 167.803L38.9011 171.547C38.0258 172.061 37.742 173.144 38.2551 174.026C38.614 174.637 39.0948 174.936 39.7724 174.936C39.9336 174.936 40.2566 174.839 40.6767 174.672L46.9714 171.026L47.0362 177.346C47.0465 178.353 47.8757 179.131 48.8116 179.131H48.8764C49.877 179.131 50.627 178.291 50.6195 177.277L50.5547 168.88L62.2413 162.143V175.485L54.848 179.686C53.9658 180.187 53.6572 181.277 54.1703 182.159C54.5291 182.777 55.0099 183.076 55.6875 183.076C56.0105 183.076 56.308 183.02 56.5594 182.874L62.2413 179.624V187.208C62.2413 188.215 63.0161 189 64.0167 189C65.0174 189 65.8246 188.215 65.8246 187.208V179.749L71.3122 182.874C71.5635 183.02 71.861 183.076 72.1518 183.076C72.8617 183.076 73.3852 182.784 73.7336 182.159C74.224 181.284 73.9072 180.186 73.0235 179.686L65.8246 175.617V162.073L77.2523 168.748L77.1882 177.277C77.1799 178.291 77.963 179.131 78.9637 179.131C79.9643 179.131 80.7239 178.353 80.739 177.346L80.8355 170.797L87.2921 174.61C87.5414 174.755 87.8733 174.804 88.2287 174.804C88.9065 174.804 89.4036 174.519 89.7458 173.957C90.2756 173.089 89.9374 171.97 89.1 171.484Z" fill="#4DC2D9"/>
<path class="freezingRain-Rain" style="--i:1;" fill-rule="evenodd" clip-rule="evenodd" d="M138.5 188C149.822 188 159 178.972 159 167.836C159 156.7 138.5 128 138.5 128C138.5 128 118 156.7 118 167.836C118 178.972 127.178 188 138.5 188Z" fill="#4DC2D9"/>
<path fill-rule="evenodd" clip-rule="evenodd" d="M28.4444 119.811C27.4249 119.936 26.3866 120 25.3333 120C11.3421 120 0 108.658 0 94.6667C0 80.6755 11.3421 69.3333 25.3333 69.3333C26.9724 69.3333 28.5751 69.489 30.1275 69.7863C29.605 66.6016 29.3333 63.3326 29.3333 60C29.3333 26.8629 56.1963 0 89.3333 0C116.017 0 138.632 17.4181 146.428 41.5045C149.895 40.5244 153.553 40 157.333 40C179.425 40 197.333 57.9086 197.333 80C197.333 83.7061 196.829 87.2945 195.886 90.7004C196.217 90.678 196.552 90.6667 196.889 90.6667C204.989 90.6667 211.556 97.2332 211.556 105.333C211.556 113.434 204.989 120 196.889 120C196.439 120 195.995 119.98 195.556 119.94V120H28.4444V119.811Z" fill="#DCDCDC"/>
</svg>
