<svg width="100%" height="100%" class="partialyCloudy" viewBox="0 0 237 203" fill="none" xmlns="http://www.w3.org/2000/svg">
<path d="M137.935 185C163.107 184.974 187.369 176.241 206 160.497C203.814 160.497 201.629 160.497 199.443 160.497C179.417 160.478 159.789 155.293 142.742 145.517C125.696 135.742 111.899 121.761 102.886 105.127C93.8725 88.4943 89.9967 69.8618 91.6893 51.3022C93.3819 32.7426 100.577 14.9835 112.473 0C88.7144 5.7872 68.0339 19.4218 54.2952 38.3565C40.5565 57.2912 34.6996 80.2305 37.8187 102.889C40.9378 125.547 52.8196 146.374 71.244 161.478C89.6685 176.583 113.375 184.931 137.935 184.964V185Z" fill="#FADEB5"/>
<path class="partialyCloudy-Clouds" fill-rule="evenodd" clip-rule="evenodd" d="M210.724 202.952C211.25 202.984 211.78 203 212.314 203C225.948 203 237 192.516 237 179.584C237 167.39 227.174 157.373 214.624 156.269C210.465 139.49 194.583 127 175.625 127C153.501 127 135.565 144.013 135.565 165C135.565 166.204 135.624 167.394 135.739 168.57C133.953 168.028 132.05 167.736 130.074 167.736C121.922 167.736 114.996 172.713 112.489 179.639C106.549 180.505 102 185.374 102 191.251C102 197.4 106.981 202.446 113.324 202.957V203H210.724V202.952Z" fill="#DDDDDD"/>
<path class="partialyCloudy-Clouds" fill-rule="evenodd" clip-rule="evenodd" d="M17.6134 114.885C16.9821 114.961 16.3392 115 15.687 115C7.0233 115 0 108.1 0 99.5889C0 91.0776 7.0233 84.1778 15.687 84.1778C16.7019 84.1778 17.6943 84.2725 18.6556 84.4534C18.3321 82.516 18.1639 80.5273 18.1639 78.5C18.1639 58.3416 34.798 42 55.3172 42C71.8401 42 85.8438 52.596 90.6719 67.2486C92.8185 66.6524 95.0835 66.3333 97.4244 66.3333C111.104 66.3333 122.193 77.2277 122.193 90.6667C122.193 92.9212 121.881 95.1042 121.297 97.1761C121.502 97.1625 121.709 97.1556 121.918 97.1556C126.934 97.1556 131 101.15 131 106.078C131 111.005 126.934 115 121.918 115C121.64 115 121.364 114.988 121.092 114.964V115H17.6134V114.885Z" fill="#EEEEEE" fill-opacity="0.9"/>
</svg>
