<svg width="100%" height="100%" class="partialyCloudy" viewBox="0 0 246 165" fill="none" xmlns="http://www.w3.org/2000/svg">
<path d="M116.096 122.632C138.76 120.25 155.204 99.965 152.825 77.324C150.445 54.6829 130.143 38.2598 107.479 40.6419C84.8147 43.024 68.3709 63.3092 70.7506 85.9503C73.1303 108.591 93.4322 125.014 116.096 122.632Z" fill="#F8E81C"/>
<path class="partialyCloudy-Rays" fill-rule="evenodd" clip-rule="evenodd" d="M101.512 7.94744L105.615 7.51612L113.33 31.5741L98.9673 33.0837L101.512 7.94744ZM136.922 11.8286L140.748 13.3744L136.265 38.2383L122.875 32.8282L136.922 11.8286ZM166.286 31.5967L168.993 34.7109L153.711 54.8296L144.237 43.9301L166.286 31.5967ZM183.232 62.8964L184.16 66.917L161.222 77.5063L157.973 63.4344L183.232 62.8964ZM183.645 98.4874L182.577 102.473L157.353 101.054L161.09 87.104L183.645 98.4874ZM167.546 130.003L164.785 133.069L142.954 120.353L152.618 109.62L167.546 130.003ZM138.494 150.596L134.617 152.007L121.311 130.53L134.882 125.591L138.494 150.596ZM103.186 155.311L99.0994 154.736L97.4338 129.527L111.735 131.537L103.186 155.311ZM69.7387 143.059L66.4004 140.633L76.7651 117.593L88.449 126.081L69.7387 143.059ZM45.9741 116.831L44.1008 113.154L63.7961 97.3301L70.3527 110.198L45.9741 116.831ZM37.0333 82.3807L37.1053 78.255L61.9242 73.5296L61.6721 87.9694L37.0333 82.3807ZM45.1727 47.7249L47.1732 44.116L71.3054 51.5955L64.3038 64.2267L45.1727 47.7249ZM68.3647 20.9822L71.7855 18.6748L89.8919 36.2948L77.9189 44.3707L68.3647 20.9822Z" fill="#F8E81C"/>
<path class="partialyCloudy-Clouds" style="--i:1;" fill-rule="evenodd" clip-rule="evenodd" d="M219.724 164.952C220.25 164.984 220.78 165 221.314 165C234.948 165 246 154.516 246 141.584C246 129.39 236.174 119.373 223.624 118.269C219.465 101.49 203.583 89 184.625 89C162.501 89 144.565 106.013 144.565 127C144.565 128.204 144.624 129.394 144.739 130.57C142.953 130.028 141.05 129.736 139.074 129.736C130.922 129.736 123.996 134.713 121.489 141.639C115.549 142.505 111 147.374 111 153.251C111 159.4 115.981 164.446 122.324 164.957V165H219.724V164.952Z" fill="#DDDDDD"/>
<path class="partialyCloudy-Clouds" style="--i:3;" fill-rule="evenodd" clip-rule="evenodd" d="M17.6134 115.885C16.9821 115.961 16.3392 116 15.687 116C7.0233 116 0 109.1 0 100.589C0 92.0776 7.0233 85.1778 15.687 85.1778C16.7019 85.1778 17.6943 85.2725 18.6556 85.4534C18.3321 83.516 18.1639 81.5273 18.1639 79.5C18.1639 59.3416 34.798 43 55.3172 43C71.8401 43 85.8438 53.596 90.6719 68.2486C92.8185 67.6524 95.0835 67.3333 97.4244 67.3333C111.104 67.3333 122.193 78.2277 122.193 91.6667C122.193 93.9212 121.881 96.1042 121.297 98.1761C121.502 98.1625 121.709 98.1556 121.918 98.1556C126.934 98.1556 131 102.15 131 107.078C131 112.005 126.934 116 121.918 116C121.64 116 121.364 115.988 121.092 115.964V116H17.6134V115.885Z" fill="#EEEEEE" fill-opacity="0.9"/>
</svg>
