<svg width="100%" height="100%"   viewBox="0 0 397 119" fill="none" xmlns="http://www.w3.org/2000/svg">
<path class="cloudyCloudsPath" d="M395.036 118.665C395.703 116.305 396.076 113.825 396.076 111.239C396.076 98.932 387.983 88.5186 376.836 85.012C378.169 81.5453 378.903 77.7853 378.903 73.8519C378.903 56.6386 364.943 42.6773 347.729 42.6773C345.263 42.6773 342.876 42.972 340.569 43.5107C337.143 18.924 316.036 -2.28882e-05 290.512 -2.28882e-05C269.881 -2.28882e-05 252.148 12.3626 244.285 30.076C239.407 26.912 233.595 25.0679 227.347 25.0679C211.559 25.0679 198.519 36.8066 196.463 52.0333C191.831 48.4813 186.053 46.3466 179.763 46.3466C164.573 46.3466 152.26 58.6653 152.26 73.8519C152.26 75.6386 152.444 77.3719 152.767 79.0519C148.628 80.4919 144.941 82.8786 141.967 85.9586C137.023 78.652 128.66 73.8519 119.175 73.8519C115.917 73.8519 112.805 74.452 109.905 75.4786C108.861 61.252 97.0107 50.0186 82.508 50.0186C74.0387 50.0186 66.4708 53.8519 61.4268 59.8653C57.4081 57.5719 52.768 56.2387 47.8067 56.2387C33.672 56.2387 22.0414 66.9053 20.4921 80.6253C8.70539 83.732 0 94.4386 0 107.199C0 111.292 0.921331 115.172 2.53066 118.665H395.036Z" />
</svg>
