<svg width="100%" height="100%"   viewBox="0 0 425 121"  xmlns="http://www.w3.org/2000/svg">
<path class="cloudyCloudsPath" d="M21.8067 120.347H256.224C256.653 119.773 257.091 119.213 257.499 118.627C258.663 119.24 259.853 119.8 261.063 120.347H421.257C423.557 113.547 424.828 106.28 424.828 98.7067C424.828 61.4933 394.657 31.32 357.441 31.32C349.221 31.32 341.347 32.7867 334.064 35.4933C323.681 19.2133 305.477 8.4 284.739 8.4C265.313 8.4 248.111 17.88 237.475 32.4534C228.919 27.7067 219.076 25 208.596 25C205.5 25 202.456 25.2267 199.487 25.6933C189.427 10.2267 172.007 0 152.189 0C128.369 0 108.012 14.7734 99.7413 35.6534C89.2173 24.4667 74.2853 17.4667 57.7107 17.4667C25.8373 17.4667 0 43.3067 0 75.1733C0 93.48 8.52271 109.773 21.8067 120.347Z" />
</svg>
