<svg width="100%" height="100%"  viewBox="0 0 385 94" fill="none" xmlns="http://www.w3.org/2000/svg">
<path class="cloudyCloudsPath" d="M383.612 93.3334C384.451 90.3068 384.909 87.1198 384.909 83.8136C384.909 68.6136 375.372 55.6531 361.959 50.5599C358.081 35.1068 344.107 23.6667 327.457 23.6667C311.323 23.6667 297.705 34.4131 293.349 49.1334C290.809 48.5599 288.171 48.2402 285.457 48.2402C280.904 48.2402 276.555 49.1068 272.553 50.6667C266.975 38.3198 254.557 29.7068 240.124 29.7068C225.817 29.7068 213.492 38.1599 207.843 50.3464C202.52 47.1599 196.3 45.3334 189.652 45.3334C182.109 45.3334 175.121 47.6932 169.365 51.6932C163.763 39.4 151.377 30.8531 136.985 30.8531C131.845 30.8531 126.964 31.947 122.551 33.9068C111.453 13.6933 89.9733 4.57764e-05 65.2893 4.57764e-05C29.2307 4.57764e-05 0 29.2266 0 65.2932C0 75.3334 2.27062 84.8402 6.31862 93.3334H383.612Z" fill="white"/>
</svg>
