<svg width="100%" height="100%" class="rain" viewBox="0 0 212 188" fill="none" xmlns="http://www.w3.org/2000/svg">
<path class="rain-Drop" style="--i:1;" fill-rule="evenodd" clip-rule="evenodd" d="M42.5 188C53.8218 188 63 178.972 63 167.836C63 156.7 42.5 128 42.5 128C42.5 128 22 156.7 22 167.836C22 178.972 31.1782 188 42.5 188Z" fill="#4DC2D9"/>
<path class="rain-Drop" style="--i:2;" fill-rule="evenodd" clip-rule="evenodd" d="M172.5 188C183.822 188 193 178.972 193 167.836C193 156.7 172.5 128 172.5 128C172.5 128 152 156.7 152 167.836C152 178.972 161.178 188 172.5 188Z" fill="#4DC2D9"/>
<path class="rain-Drop" style="--i:3;" fill-rule="evenodd" clip-rule="evenodd" d="M105.5 188C116.822 188 126 178.972 126 167.836C126 156.7 105.5 128 105.5 128C105.5 128 85 156.7 85 167.836C85 178.972 94.1782 188 105.5 188Z" fill="#4DC2D9"/>
<path fill-rule="evenodd" clip-rule="evenodd" d="M28.4444 119.811C27.4249 119.936 26.3866 120 25.3333 120C11.3421 120 0 108.658 0 94.6667C0 80.6755 11.3421 69.3333 25.3333 69.3333C26.9724 69.3333 28.5751 69.489 30.1275 69.7863C29.605 66.6016 29.3333 63.3326 29.3333 60C29.3333 26.8629 56.1963 0 89.3333 0C116.017 0 138.632 17.4181 146.428 41.5045C149.895 40.5244 153.553 40 157.333 40C179.425 40 197.333 57.9086 197.333 80C197.333 83.7061 196.829 87.2945 195.886 90.7004C196.217 90.678 196.552 90.6667 196.889 90.6667C204.989 90.6667 211.556 97.2332 211.556 105.333C211.556 113.434 204.989 120 196.889 120C196.439 120 195.995 119.98 195.556 119.94V120H28.4444V119.811Z" fill="#DCDCDC"/>
</svg>
