<svg width="100%" height="100%"   viewBox="0 0 700 106" fill="none" xmlns="http://www.w3.org/2000/svg">
<path class="cloudyCloudsPath" d="M699.728 105.227C697.568 86.2 681.435 71.4134 661.835 71.4134C659.448 71.4134 657.115 71.64 654.848 72.0667C651.075 68.0667 646.435 64.8934 641.235 62.8267C641.488 61.04 641.635 59.2 641.635 57.3333C641.635 36.2667 624.555 19.1867 603.488 19.1867C590.381 19.1867 578.835 25.8 571.955 35.8533C567.675 34.1867 563.021 33.2667 558.155 33.2667C544.421 33.2667 532.395 40.52 525.675 51.4C523.688 52.08 521.768 52.9067 519.941 53.88C515.528 46.48 508.688 40.7067 500.509 37.6534C493.829 26.5867 481.693 19.1867 467.829 19.1867C457.007 19.1867 447.245 23.7067 440.301 30.9467C436.928 29.96 433.367 29.4267 429.68 29.4267C417.34 29.4267 406.376 35.2934 399.403 44.3867C393.105 39.8 385.355 37.08 376.965 37.08C373.887 37.08 370.899 37.4534 368.032 38.1467C361.033 29.8134 350.545 24.52 338.815 24.52C322.303 24.52 308.241 35.0134 302.932 49.6934C293.981 42.3734 282.544 37.9734 270.076 37.9734C248.091 37.9734 229.312 51.64 221.739 70.9467C220.065 58.76 209.641 49.36 197 49.36C194.792 49.36 192.663 49.68 190.624 50.2134C190.633 49.9334 190.667 49.6534 190.667 49.36C190.667 35.2934 179.263 23.8934 165.197 23.8934C157.333 23.8934 150.305 27.4667 145.635 33.0667C145.116 32.8 144.589 32.5467 144.057 32.3067C144.148 31.36 144.197 30.4 144.197 29.4267C144.197 13.1867 131.021 1.52588e-05 114.765 1.52588e-05C101.427 1.52588e-05 90.1667 8.88002 86.5547 21.04C83.024 19.4667 79.12 18.56 75 18.56C60.5707 18.56 48.6853 29.36 46.9173 43.3067C46.2293 43.2667 45.5347 43.2267 44.8333 43.2267C28.172 43.2267 14.6667 56.7333 14.6667 73.4C14.6667 76.0667 15.016 78.6533 15.6667 81.1067C6.564 84.1733 0 92.76 0 102.893C0 103.68 0.0399844 104.467 0.117318 105.227H699.728Z"/>
</svg>
