<svg width="100%" height="100%" class="showers" viewBox="0 0 241 218" fill="none" xmlns="http://www.w3.org/2000/svg">
<path d="M83.1883 118.489C105.087 116.188 120.975 96.5878 118.676 74.7119C116.377 52.836 96.7604 36.968 74.862 39.2696C52.9636 41.5712 37.0753 61.1709 39.3746 83.0468C41.6738 104.923 61.2899 120.791 83.1883 118.489Z" fill="#F8E81C"/>
<path class="showers-Rays" fill-rule="evenodd" clip-rule="evenodd" d="M69.0958 7.67915L73.0608 7.2624L80.5151 30.5076L66.6374 31.9662L69.0958 7.67915ZM103.31 11.4292L107.007 12.9227L102.675 36.9466L89.7373 31.7193L103.31 11.4292ZM131.682 30.5295L134.298 33.5384L119.532 52.9775L110.377 42.4462L131.682 30.5295ZM148.055 60.7718L148.952 64.6565L126.789 74.888L123.65 61.2916L148.055 60.7718ZM148.455 95.1603L147.423 99.0114L123.05 97.6402L126.662 84.1615L148.455 95.1603ZM132.9 125.611L130.232 128.574L109.138 116.287L118.475 105.917L132.9 125.611ZM104.829 145.508L101.082 146.872L88.226 126.121L101.339 121.348L104.829 145.508ZM70.7131 150.064L66.765 149.509L65.1557 125.151L78.974 127.093L70.7131 150.064ZM38.3962 138.226L35.1707 135.882L45.1852 113.62L56.4744 121.822L38.3962 138.226ZM15.4344 112.884L13.6244 109.332L32.6544 94.0421L38.9894 106.475L15.4344 112.884ZM6.79565 79.5977L6.86524 75.6115L30.8457 71.0457L30.6021 84.9977L6.79565 79.5977ZM14.6601 46.1128L16.593 42.6258L39.9099 49.8526L33.1448 62.0571L14.6601 46.1128ZM37.0686 20.2735L40.3739 18.0441L57.8686 35.0689L46.3001 42.8719L37.0686 20.2735Z" fill="#F8E81C"/>
<path fill-rule="evenodd" clip-rule="evenodd" d="M204.025 152.047C204.745 152.092 205.471 152.116 206.203 152.116C224.888 152.116 240.035 136.937 240.035 118.213C240.035 100.558 226.569 86.0555 209.368 84.4562C203.669 60.1638 181.903 42.0796 155.922 42.0796C125.6 42.0796 101.02 66.712 101.02 97.0976C101.02 98.8405 101.1 100.564 101.259 102.266C98.8107 101.482 96.2019 101.059 93.4945 101.059C82.3225 101.059 72.8302 108.265 69.3943 118.293C61.2536 119.547 55.0195 126.596 55.0195 135.105C55.0195 144.008 61.8453 151.314 70.5388 152.054V152.116H204.025L204.025 152.047Z" fill="#DCDCDC"/>
<path class="showers-Drops" style="--i:1;" fill-rule="evenodd" clip-rule="evenodd" d="M147.52 217.08C158.841 217.08 168.02 208.052 168.02 196.916C168.02 185.779 147.52 157.08 147.52 157.08C147.52 157.08 127.02 185.779 127.02 196.916C127.02 208.052 136.198 217.08 147.52 217.08Z" fill="#4DC2D9"/>
</svg>
