<svg width="100%" height="100%" class="showers" viewBox="0 0 186 256" fill="none" xmlns="http://www.w3.org/2000/svg">
<path d="M109.935 185C135.107 184.974 159.369 176.241 178 160.497C175.814 160.497 173.629 160.497 171.443 160.497C151.417 160.478 131.789 155.293 114.742 145.517C97.6958 135.742 83.8987 121.761 74.8856 105.127C65.8725 88.4943 61.9967 69.8618 63.6893 51.3022C65.3819 32.7426 72.5766 14.9835 84.473 0C60.7144 5.7872 40.0339 19.4218 26.2952 38.3565C12.5565 57.2912 6.69963 80.2305 9.81873 102.889C12.9378 125.547 24.8196 146.374 43.244 161.478C61.6685 176.583 85.3753 184.931 109.935 184.964V185Z" fill="#FADEB5"/>
<path fill-rule="evenodd" clip-rule="evenodd" d="M149.005 190.967C149.725 191.013 150.452 191.036 151.184 191.036C169.868 191.036 185.015 175.857 185.015 157.133C185.015 139.479 171.549 124.976 154.349 123.377C148.649 99.0842 126.883 81 100.902 81C70.5807 81 46 105.632 46 136.018C46 137.761 46.0809 139.485 46.2391 141.186C43.7912 140.402 41.1824 139.979 38.475 139.979C27.303 139.979 17.8107 147.186 14.3748 157.213C6.23408 158.467 0 165.517 0 174.025C0 182.929 6.82572 190.235 15.5193 190.974V191.036H149.005L149.005 190.967Z" fill="#DCDCDC"/>
<path class="showers-Drop" style="--i:1;" fill-rule="evenodd" clip-rule="evenodd" d="M92.5 256C103.822 256 113 246.972 113 235.836C113 224.7 92.5 196 92.5 196C92.5 196 72 224.7 72 235.836C72 246.972 81.1782 256 92.5 256Z" fill="#4DC2D9"/>
<path class="showers-Drop" style="--i:2;" fill-rule="evenodd" clip-rule="evenodd" d="M34.4805 255.92C45.8023 255.92 54.9805 246.893 54.9805 235.756C54.9805 224.62 34.4805 195.92 34.4805 195.92C34.4805 195.92 13.9805 224.62 13.9805 235.756C13.9805 246.893 23.1586 255.92 34.4805 255.92Z" fill="#4DC2D9"/>
<path class="showers-Drop" style="--i:3;" fill-rule="evenodd" clip-rule="evenodd" d="M150.48 255.92C161.802 255.92 170.98 246.893 170.98 235.756C170.98 224.62 150.48 195.92 150.48 195.92C150.48 195.92 129.98 224.62 129.98 235.756C129.98 246.893 139.159 255.92 150.48 255.92Z" fill="#4DC2D9"/>
</svg>
