<svg width="100%" height="100%" class="showers" viewBox="0 0 191 256" fill="none" xmlns="http://www.w3.org/2000/svg">
<path d="M100.935 185C126.107 184.974 150.369 176.241 169 160.497C166.814 160.497 164.629 160.497 162.443 160.497C142.417 160.478 122.789 155.293 105.742 145.517C88.6958 135.742 74.8987 121.761 65.8856 105.127C56.8725 88.4943 52.9967 69.8618 54.6893 51.3022C56.3819 32.7426 63.5766 14.9835 75.473 0C51.7144 5.7872 31.0339 19.4218 17.2952 38.3565C3.55655 57.2912 -2.30037 80.2305 0.818726 102.889C3.93784 125.547 15.8196 146.374 34.244 161.478C52.6685 176.583 76.3753 184.931 100.935 184.964V185Z" fill="#FADEB5"/>
<path fill-rule="evenodd" clip-rule="evenodd" d="M154.005 190.967C154.725 191.013 155.452 191.036 156.184 191.036C174.868 191.036 190.015 175.857 190.015 157.133C190.015 139.479 176.549 124.976 159.349 123.377C153.649 99.0842 131.883 81 105.902 81C75.5807 81 51 105.632 51 136.018C51 137.761 51.0809 139.485 51.2391 141.186C48.7912 140.402 46.1824 139.979 43.475 139.979C32.303 139.979 22.8107 147.186 19.3748 157.213C11.2341 158.467 5 165.517 5 174.025C5 182.929 11.8257 190.235 20.5193 190.974V191.036H154.005L154.005 190.967Z" fill="#DCDCDC"/>
<path class="showers-Drops" style="--i:1;" fill-rule="evenodd" clip-rule="evenodd" d="M97.5 256C108.822 256 118 246.972 118 235.836C118 224.7 97.5 196 97.5 196C97.5 196 77 224.7 77 235.836C77 246.972 86.1782 256 97.5 256Z" fill="#4DC2D9"/>
</svg>
