<svg width="100%" height="100%" class="showers" viewBox="0 0 190 256" fill="none" xmlns="http://www.w3.org/2000/svg">
<path d="M100.935 185C126.107 184.974 150.369 176.241 169 160.497C166.814 160.497 164.629 160.497 162.443 160.497C142.417 160.478 122.789 155.293 105.742 145.517C88.6958 135.742 74.8987 121.761 65.8856 105.127C56.8725 88.4943 52.9967 69.8618 54.6893 51.3022C56.3819 32.7426 63.5766 14.9835 75.473 0C51.7144 5.7872 31.0339 19.4218 17.2952 38.3565C3.55655 57.2912 -2.30037 80.2305 0.818726 102.889C3.93784 125.547 15.8196 146.374 34.244 161.478C52.6685 176.583 76.3753 184.931 100.935 184.964V185Z" fill="#FADEB5"/>
<path fill-rule="evenodd" clip-rule="evenodd" d="M153.005 190.967C153.725 191.013 154.452 191.036 155.184 191.036C173.868 191.036 189.015 175.857 189.015 157.133C189.015 139.479 175.549 124.976 158.349 123.377C152.649 99.0842 130.883 81 104.902 81C74.5807 81 50 105.632 50 136.018C50 137.761 50.0809 139.485 50.2391 141.186C47.7912 140.402 45.1824 139.979 42.475 139.979C31.303 139.979 21.8107 147.186 18.3748 157.213C10.2341 158.467 4 165.517 4 174.025C4 182.929 10.8257 190.235 19.5193 190.974V191.036H153.005L153.005 190.967Z" fill="#DCDCDC"/>
<path class="showers-Drops" style="--i:1;" fill-rule="evenodd" clip-rule="evenodd" d="M63.5 256C74.8218 256 84 246.972 84 235.836C84 224.7 63.5 196 63.5 196C63.5 196 43 224.7 43 235.836C43 246.972 52.1782 256 63.5 256Z" fill="#4DC2D9"/>
<path class="showers-Drops" style="--i:2;" fill-rule="evenodd" clip-rule="evenodd" d="M131.5 256C142.822 256 152 246.972 152 235.836C152 224.7 131.5 196 131.5 196C131.5 196 111 224.7 111 235.836C111 246.972 120.178 256 131.5 256Z" fill="#4DC2D9"/>
</svg>
