<svg width="100%" height="100%" class="slightlyCloudy" viewBox="0 0 211 204" fill="none" xmlns="http://www.w3.org/2000/svg">
<path d="M100.935 185C126.107 184.974 150.369 176.241 169 160.497C166.814 160.497 164.629 160.497 162.443 160.497C142.417 160.478 122.789 155.293 105.742 145.517C88.6958 135.742 74.8987 121.761 65.8856 105.127C56.8725 88.4943 52.9967 69.8618 54.6893 51.3022C56.3819 32.7426 63.5766 14.9835 75.473 0C51.7144 5.7872 31.0339 19.4218 17.2952 38.3565C3.55655 57.2912 -2.30037 80.2305 0.818726 102.889C3.93784 125.547 15.8196 146.374 34.244 161.478C52.6685 176.583 76.3753 184.931 100.935 184.964V185Z" fill="#FADEB5"/>
<path class="slightlyCloudy-Cloud" fill-rule="evenodd" clip-rule="evenodd" d="M174.005 202.967C174.725 203.013 175.452 203.036 176.184 203.036C194.868 203.036 210.015 187.857 210.015 169.133C210.015 151.479 196.549 136.976 179.349 135.377C173.649 111.084 151.883 93 125.902 93C95.5807 93 71 117.632 71 148.018C71 149.761 71.0809 151.485 71.2391 153.186C68.7912 152.402 66.1824 151.979 63.475 151.979C52.303 151.979 42.8107 159.186 39.3748 169.213C31.2341 170.467 25 177.517 25 186.025C25 194.929 31.8257 202.235 40.5193 202.974V203.036H174.005V202.967Z" fill="#DDDDDD"/>
</svg>
