<svg width="100%" height="100%" class="slightlyCloudy" viewBox="0 0 241 163" fill="none" xmlns="http://www.w3.org/2000/svg">
<path d="M86.0963 122.632C108.76 120.25 125.204 99.965 122.825 77.324C120.445 54.6829 100.143 38.2598 77.4788 40.6419C54.8147 43.024 38.3709 63.3092 40.7506 85.9503C43.1303 108.591 63.4322 125.014 86.0963 122.632Z" fill="#F8E81C"/>
<path class="slightlyCloudy-Rays" fill-rule="evenodd" clip-rule="evenodd" d="M71.5117 7.94744L75.6154 7.51612L83.3303 31.5741L68.9673 33.0837L71.5117 7.94744ZM106.922 11.8286L110.748 13.3744L106.265 38.2383L92.875 32.8282L106.922 11.8286ZM136.286 31.5967L138.993 34.7109L123.711 54.8296L114.237 43.9301L136.286 31.5967ZM153.232 62.8964L154.16 66.917L131.222 77.5063L127.973 63.4344L153.232 62.8964ZM153.645 98.4874L152.577 102.473L127.353 101.054L131.09 87.104L153.645 98.4874ZM137.546 130.003L134.785 133.069L112.954 120.353L122.618 109.62L137.546 130.003ZM108.494 150.596L104.617 152.007L91.3108 130.53L104.882 125.591L108.494 150.596ZM73.1855 155.311L69.0994 154.736L67.4338 129.527L81.7353 131.537L73.1855 155.311ZM39.7387 143.059L36.4004 140.633L46.7651 117.593L58.449 126.081L39.7387 143.059ZM15.9741 116.831L14.1008 113.154L33.7961 97.3301L40.3527 110.198L15.9741 116.831ZM7.03327 82.3807L7.10528 78.255L31.9242 73.5296L31.6721 87.9694L7.03327 82.3807ZM15.1727 47.7249L17.1732 44.116L41.3054 51.5955L34.3038 64.2267L15.1727 47.7249ZM38.3647 20.9822L41.7855 18.6748L59.8919 36.2948L47.9189 44.3707L38.3647 20.9822Z" fill="#F8E81C"/>
<path class="slightlyCloudy-Cloud" fill-rule="evenodd" clip-rule="evenodd" d="M204.391 162.258C205.112 162.304 205.838 162.327 206.57 162.327C225.255 162.327 240.402 147.148 240.402 128.424C240.402 110.77 226.936 96.267 209.735 94.6677C204.035 70.3753 182.27 52.291 156.289 52.291C125.967 52.291 101.386 76.9234 101.386 107.309C101.386 109.052 101.467 110.776 101.625 112.477C99.1775 111.693 96.5687 111.27 93.8613 111.27C82.6893 111.27 73.197 118.477 69.7611 128.504C61.6204 129.758 55.3863 136.808 55.3863 145.316C55.3863 154.22 62.212 161.526 70.9056 162.265V162.327H204.391V162.258Z" fill="#DDDDDD"/>
</svg>
