<svg width="100%" height="100%" class="snowShowers" viewBox="0 0 240 221" fill="none" xmlns="http://www.w3.org/2000/svg">
<path class="snowShowers-Drops" style="--i:1;" fill-rule="evenodd" clip-rule="evenodd" d="M89.5 221C100.822 221 110 211.972 110 200.836C110 189.7 89.5 161 89.5 161C89.5 161 69 189.7 69 200.836C69 211.972 78.1782 221 89.5 221Z" fill="#4DC2D9"/>
<path class="snowShowers-Drops" style="--i:2;" fill-rule="evenodd" clip-rule="evenodd" d="M194.5 221C205.822 221 215 211.972 215 200.836C215 189.7 194.5 161 194.5 161C194.5 161 174 189.7 174 200.836C174 211.972 183.178 221 194.5 221Z" fill="#4DC2D9"/>
<path d="M83.0176 117.673C104.916 115.371 120.818 95.9 118.535 74.1828C116.253 52.4657 96.6501 36.7263 74.7517 39.0279C52.8533 41.3295 36.9515 60.8005 39.2341 82.5177C41.5166 104.235 61.1192 119.974 83.0176 117.673Z" fill="#F8E81C"/>
<path class="snowShowers-Rays" fill-rule="evenodd" clip-rule="evenodd" d="M69.0099 7.6701L72.975 7.25336L80.411 30.3256L66.5333 31.7842L69.0099 7.6701ZM103.177 11.3648L106.874 12.8583L102.608 36.7209L89.6698 31.4936L103.177 11.3648ZM131.502 30.3042L134.118 33.3131L119.483 52.6381L110.328 42.1068L131.502 30.3042ZM147.836 60.3155L148.733 64.2002L126.739 74.3926L123.6 60.7961L147.836 60.3155ZM148.214 94.4565L147.182 98.3075L122.978 96.9813L126.589 83.5027L148.214 94.4565ZM132.66 124.701L129.993 127.664L109.028 115.493L118.365 105.123L132.66 124.701ZM104.615 144.479L100.868 145.842L88.0712 125.254L101.184 120.482L104.615 144.479ZM70.5406 149.03L66.5925 148.475L64.959 124.289L78.7774 126.231L70.5406 149.03ZM38.2729 137.304L35.0474 134.96L44.9597 112.839L56.2488 121.041L38.2729 137.304ZM15.3554 112.163L13.5454 108.611L32.4204 93.4002L38.7554 105.833L15.3554 112.163ZM6.7477 79.1234L6.81728 75.1371L30.6238 70.5683L30.3803 84.5203L6.7477 79.1234ZM14.6216 45.8727L16.5545 42.3856L39.7193 49.5281L32.9542 61.7326L14.6216 45.8727ZM37.0171 20.2006L40.3224 17.9711L57.7198 34.8517L46.1513 42.6547L37.0171 20.2006Z" fill="#F8E81C"/>
<path fill-rule="evenodd" clip-rule="evenodd" d="M203.885 152.04C204.605 152.086 205.331 152.109 206.063 152.109C224.748 152.109 239.895 136.93 239.895 118.206C239.895 100.552 226.429 86.0492 209.229 84.4499C203.529 60.1575 181.763 42.0732 155.782 42.0732C125.46 42.0732 100.88 66.7057 100.88 97.0913C100.88 98.8341 100.961 100.558 101.119 102.26C98.6709 101.475 96.0621 101.052 93.3547 101.052C82.1827 101.052 72.6904 108.259 69.2545 118.286C61.1138 119.54 54.8797 126.59 54.8797 135.099C54.8797 144.002 61.7055 151.308 70.399 152.048V152.109H203.885L203.885 152.04Z" fill="#DCDCDC"/>
<circle class="snowShowers-Ball" cx="142" cy="191" r="20" fill="white"/>
</svg>
