<svg width="100%" class="thunderStorm" height="100%" viewBox="0 0 212 200" fill="none" xmlns="http://www.w3.org/2000/svg">
<path fill-rule="evenodd" clip-rule="evenodd" d="M28.4444 119.811C27.4249 119.936 26.3866 120 25.3333 120C11.3421 120 0 108.658 0 94.6667C0 80.6755 11.3421 69.3333 25.3333 69.3333C26.9724 69.3333 28.5751 69.489 30.1275 69.7863C29.605 66.6016 29.3333 63.3326 29.3333 60C29.3333 26.8629 56.1963 0 89.3333 0C116.017 0 138.632 17.4181 146.428 41.5045C149.895 40.5244 153.553 40 157.333 40C179.425 40 197.333 57.9086 197.333 80C197.333 83.7061 196.829 87.2945 195.886 90.7004C196.217 90.678 196.552 90.6667 196.889 90.6667C204.989 90.6667 211.556 97.2332 211.556 105.333C211.556 113.434 204.989 120 196.889 120C196.439 120 195.995 119.98 195.556 119.94V120H28.4444V119.811Z" fill="#DCDCDC"/>
<path class="thunderStorm-Bolt" style="--i:1;" d="M194.185 142.996C193.63 141.749 192.393 140.947 191.028 140.947H165.026L175.722 112.679C176.123 111.617 175.978 110.426 175.333 109.492C174.687 108.558 173.625 108 172.489 108H146.764C145.327 108 144.04 108.889 143.532 110.233L127.224 153.332C126.822 154.394 126.967 155.585 127.613 156.52C128.258 157.454 129.321 158.012 130.456 158.012L159.314 157.838L144.067 198.39C143.865 198.926 144.074 199.53 144.563 199.827C145.053 200.124 145.684 200.031 146.067 199.605L193.599 146.713C194.511 145.698 194.741 144.242 194.185 142.996Z" fill="#F8E81C"/>
<path class="thunderStorm-Bolt" style="--i:2;" d="M101.185 142.996C100.63 141.749 99.393 140.947 98.0285 140.947H72.0258L82.7215 112.679C83.1233 111.617 82.978 110.426 82.3326 109.492C81.6875 108.558 80.6247 108 79.4893 108H53.7641C52.3272 108 51.0401 108.889 50.5316 110.233L34.2237 153.332C33.8219 154.394 33.9672 155.585 34.6126 156.52C35.258 157.454 36.3208 158.012 37.4562 158.012L66.314 157.838L51.0668 198.39C50.8654 198.926 51.0739 199.53 51.5632 199.827C52.0525 200.124 52.6844 200.031 53.0673 199.605L100.599 146.713C101.511 145.698 101.741 144.242 101.185 142.996Z" fill="#F8E81C"/>
</svg>
