<svg width="100%" height="100%" class="thunderStorm" viewBox="0 0 212 200" fill="none" xmlns="http://www.w3.org/2000/svg">
<path fill-rule="evenodd" clip-rule="evenodd" d="M28.4444 119.811C27.4249 119.936 26.3866 120 25.3333 120C11.3421 120 0 108.658 0 94.6667C0 80.6755 11.3421 69.3333 25.3333 69.3333C26.9724 69.3333 28.5751 69.489 30.1275 69.7863C29.605 66.6016 29.3333 63.3326 29.3333 60C29.3333 26.8629 56.1963 0 89.3333 0C116.017 0 138.632 17.4181 146.428 41.5045C149.895 40.5244 153.553 40 157.333 40C179.425 40 197.333 57.9086 197.333 80C197.333 83.7061 196.829 87.2945 195.886 90.7004C196.217 90.678 196.552 90.6667 196.889 90.6667C204.989 90.6667 211.556 97.2332 211.556 105.333C211.556 113.434 204.989 120 196.889 120C196.439 120 195.995 119.98 195.556 119.94V120H28.4444V119.811Z" fill="#DCDCDC"/>
<path class="thunderStorm-Bolt" style="--i:1;" d="M152.185 142.996C151.63 141.749 150.393 140.947 149.028 140.947H123.026L133.722 112.679C134.123 111.617 133.978 110.426 133.333 109.492C132.687 108.558 131.625 108 130.489 108H104.764C103.327 108 102.04 108.889 101.532 110.233L85.2237 153.332C84.8219 154.394 84.9672 155.585 85.6126 156.52C86.258 157.454 87.3208 158.012 88.4562 158.012L117.314 157.838L102.067 198.39C101.865 198.926 102.074 199.53 102.563 199.827C103.053 200.124 103.684 200.031 104.067 199.605L151.599 146.713C152.511 145.698 152.741 144.242 152.185 142.996Z" fill="#F8E81C"/>
</svg>
